<?xml version="1.0" encoding="utf-8"?>
<!-- Generator: Adobe Illustrator 18.0.0, SVG Export Plug-In . SVG Version: 6.00 Build 0)  -->
<!DOCTYPE svg PUBLIC "-//W3C//DTD SVG 1.1//EN" "http://www.w3.org/Graphics/SVG/1.1/DTD/svg11.dtd">
<svg version="1.1" id="Layer_1" xmlns="http://www.w3.org/2000/svg" xmlns:xlink="http://www.w3.org/1999/xlink" x="0px" y="0px"
	 viewBox="0 0 288.1 381" enable-background="new 0 0 288.1 381" xml:space="preserve">
<g>
	
        
        
        <path fill="#002E6D" d="M253.9,362.8L41.2,375.7c-8.2,0-15-6.7-15-15L18,29.6c0-8.2,6.7-15,15-15l226.5-7.5c8.2,0,15,6.7,15,15
		l-5.6,325.7C268.9,356,262.2,362.8,253.9,362.8z"/>
	<path fill="#44C6F3" d="M259,347.8H33.4c-8.2,0-15-6.7-15-15L11,34.2c0-8.2,6.7-15,15-15l240.5-4.6c8.2,0,15,6.7,15,15l-7.5,303.3
		C273.9,341.1,267.2,347.8,259,347.8z"/>
</g>
</svg>
